name D:\school\WTK\thesis\model\3dpredictsim\Results\test_WL_v2\Fal_s1_bCst_PF_Natali2010_ls135_k90_Mmtp_ig24_v2.mot
datacolumns 128
datarows 4
range 1.71350246 1.74777251
endheader
time	pelvis_tilt	pelvis_list	pelvis_rotation	pelvis_tx	pelvis_ty	pelvis_tz	hip_flexion_l	hip_adduction_l	hip_rotation_l	hip_flexion_r	hip_adduction_r	hip_rotation_r	knee_angle_l	knee_angle_r	ankle_angle_l	ankle_angle_r	subtalar_angle_l	subtalar_angle_r	tmt_angle_l	tmt_angle_r	mtp_angle_l	mtp_angle_r	lumbar_extension	lumbar_bending	lumbar_rotation	arm_flex_l	arm_add_l	arm_rot_l	arm_flex_r	arm_add_r	arm_rot_r	elbow_flex_l	elbow_flex_r	pro_sup_l	pro_sup_r	glut_med1_l/activation	glut_med2_l/activation	glut_med3_l/activation	glut_min1_l/activation	glut_min2_l/activation	glut_min3_l/activation	semimem_l/activation	semiten_l/activation	bifemlh_l/activation	bifemsh_l/activation	sar_l/activation	add_long_l/activation	add_brev_l/activation	add_mag1_l/activation	add_mag2_l/activation	add_mag3_l/activation	tfl_l/activation	pect_l/activation	grac_l/activation	glut_max1_l/activation	glut_max2_l/activation	glut_max3_l/activation	iliacus_l/activation	psoas_l/activation	quad_fem_l/activation	gem_l/activation	peri_l/activation	rect_fem_l/activation	vas_med_l/activation	vas_int_l/activation	vas_lat_l/activation	med_gas_l/activation	lat_gas_l/activation	soleus_l/activation	tib_post_l/activation	flex_dig_l/activation	flex_hal_l/activation	tib_ant_l/activation	per_brev_l/activation	per_long_l/activation	per_tert_l/activation	ext_dig_l/activation	ext_hal_l/activation	ercspn_l/activation	intobl_l/activation	extobl_l/activation	glut_med1_r/activation	glut_med2_r/activation	glut_med3_r/activation	glut_min1_r/activation	glut_min2_r/activation	glut_min3_r/activation	semimem_r/activation	semiten_r/activation	bifemlh_r/activation	bifemsh_r/activation	sar_r/activation	add_long_r/activation	add_brev_r/activation	add_mag1_r/activation	add_mag2_r/activation	add_mag3_r/activation	tfl_r/activation	pect_r/activation	grac_r/activation	glut_max1_r/activation	glut_max2_r/activation	glut_max3_r/activation	iliacus_r/activation	psoas_r/activation	quad_fem_r/activation	gem_r/activation	peri_r/activation	rect_fem_r/activation	vas_med_r/activation	vas_int_r/activation	vas_lat_r/activation	med_gas_r/activation	lat_gas_r/activation	soleus_r/activation	tib_post_r/activation	flex_dig_r/activation	flex_hal_r/activation	tib_ant_r/activation	per_brev_r/activation	per_long_r/activation	per_tert_r/activation	ext_dig_r/activation	ext_hal_r/activation	ercspn_r/activation	intobl_r/activation	extobl_r/activation	
          1.71350246	         -2.93011906	          2.64181818	         -5.40387088	          2.14187808	          0.91802014	          0.00210432	         28.57836025	          4.34468782	         -3.49431443	        -16.15062944	         -0.69024157	          7.51634104	        -10.31928051	        -11.08162315	          6.78986853	         -0.56533585	         -6.34216352	          1.89857199	         -2.70136887	          0.86281788	        -11.38808834	         11.86078085	         -2.30283408	         -0.97099750	          2.19792666	         -5.34542400	        -13.44997385	          4.41046238	          4.32959524	        -13.45372119	         16.39309365	         17.15094896	         38.60865649	         86.51662706	         86.51662706	          0.05000001	          0.05000006	          0.10623811	          0.05000008	          0.05000009	          0.05000010	          0.20971133	          0.07967320	          0.11778277	          0.06396439	          0.06632604	          0.11952087	          0.32023202	          0.30174840	          0.18938971	          0.11547858	          0.05000032	          0.07122951	          0.14584312	          0.05000120	          0.10525500	          0.14520018	          0.05000045	          0.05945118	          0.57463579	          0.24000702	          0.12919645	          0.05951958	          0.07185355	          0.07068684	          0.06427867	          0.07085139	          0.07085197	          0.06386476	          0.05951960	          0.07286446	          0.05021486	          0.45195536	          0.26693117	          0.21388477	          0.18130803	          0.42608979	          0.11654519	          0.05000001	          0.09812684	          0.08862133	          0.28453242	          0.07085195	          0.05000017	          0.26292996	          0.14221886	          0.07804642	          0.05000347	          0.05000111	          0.05000086	          0.05000066	          0.08434271	          0.15187305	          0.05860257	          0.05047262	          0.05002362	          0.05951754	          0.22245205	          0.05023206	          0.05000265	          0.05000441	          0.05000294	          0.05000255	          0.40007434	          0.61024472	          0.05000046	          0.05000167	          0.05000028	          0.28785539	          0.17317523	          0.17083748	          0.14807970	          0.22436469	          0.30632303	          0.27314071	          0.26913719	          0.22948258	          0.27837467	          0.05000005	          0.05000018	          0.07646558	          0.05000019	          0.05000394	          0.05000044	          0.05353510	          0.07085122	          0.06865912	
          1.72492581	         -2.93004606	          2.71902405	         -5.69524063	          2.15949040	          0.91725906	          0.00198931	         27.82901441	          4.57300263	         -3.26440595	        -16.28017237	         -1.01272592	          7.35231700	        -10.88723541	        -12.48086435	          6.17052289	         -1.14258659	         -6.72652871	          2.93265858	         -2.83342702	         -0.73897545	        -11.76986321	         15.37440427	         -2.06274040	         -1.13629384	          2.26816886	         -6.21288867	        -13.45104258	          4.23779603	          3.94119447	        -13.45061260	         16.62369243	         16.68311801	         39.75601068	         86.51662706	         86.51662706	          0.24784274	          0.23434876	          0.25696335	          0.36218075	          0.26787257	          0.19763300	          0.17807724	          0.06707945	          0.09894557	          0.07239649	          0.05571828	          0.10040494	          0.26901464	          0.25348733	          0.15909925	          0.12305018	          0.05000090	          0.05983781	          0.12251758	          0.05000360	          0.11999883	          0.12197731	          0.05000354	          0.05000080	          0.48272941	          0.20162077	          0.22549078	          0.05000019	          0.06036153	          0.05938143	          0.05399815	          0.05951955	          0.05952006	          0.05365035	          0.05000018	          0.13484858	          0.05000030	          0.52884105	          0.37897020	          0.18939879	          0.38462270	          0.47887620	          0.09888181	          0.05659723	          0.13140775	          0.07444738	          0.37948168	          0.05952006	          0.05000015	          0.40634264	          0.11947271	          0.06556390	          0.05000215	          0.05000027	          0.05000020	          0.05000060	          0.07085419	          0.12758288	          0.05000067	          0.05000053	          0.05000127	          0.05000084	          0.18687403	          0.05300635	          0.05000083	          0.05000219	          0.05000136	          0.05000091	          0.34802302	          0.60330450	          0.05000015	          0.05000070	          0.05000032	          0.24181673	          0.15041969	          0.15020492	          0.16379345	          0.18848012	          0.25733017	          0.22945497	          0.22609186	          0.24291476	          0.30559384	          0.05000005	          0.07308790	          0.10180000	          0.05000028	          0.14106999	          0.05000054	          0.05000004	          0.05951939	          0.05767790	
          1.73634916	         -2.92929391	          2.79124557	         -5.95086848	          2.17723334	          0.91655699	          0.00184640	         27.05310012	          4.76664223	         -3.03066855	        -16.36168310	         -1.33852991	          7.19390433	        -11.41785281	        -13.91191007	          5.55879416	         -1.85710923	         -7.10500761	          3.99819024	         -2.68861163	         -2.52071477	        -12.06567985	         19.28633273	         -1.82379139	         -1.30386258	          2.33074950	         -7.07347398	        -13.45183736	          4.10426542	          3.50344535	        -13.45251488	         16.79686619	         16.26459199	         40.86200658	         86.51662706	         86.51662706	          0.35037721	          0.34453629	          0.36876458	          0.30425442	          0.23226591	          0.26653441	          0.14959644	          0.06476293	          0.08487074	          0.06081781	          0.05000145	          0.08434636	          0.22598889	          0.21294516	          0.13365366	          0.15936998	          0.05000077	          0.05026806	          0.10292267	          0.20952767	          0.18040314	          0.14872245	          0.05000012	          0.05000014	          0.40552241	          0.16937394	          0.18942701	          0.05000018	          0.06869624	          0.08669685	          0.06202670	          0.05000013	          0.05000057	          0.05000002	          0.05000025	          0.11328469	          0.05952016	          0.62318521	          0.38392187	          0.20716899	          0.46761170	          0.48770805	          0.08306689	          0.07862321	          0.11039061	          0.06254038	          0.36459355	          0.05000065	          0.05000014	          0.34135329	          0.10036452	          0.05507786	          0.05000221	          0.05000032	          0.05000027	          0.05000031	          0.05952243	          0.14154679	          0.07468487	          0.05000428	          0.05000520	          0.05000247	          0.15698587	          0.07084831	          0.05000119	          0.05000275	          0.05000179	          0.05000142	          0.29236080	          0.57494688	          0.05000025	          0.05000089	          0.05000018	          0.20314095	          0.18558321	          0.18070870	          0.16935341	          0.15833488	          0.21617316	          0.19275627	          0.18993109	          0.20406451	          0.26129477	          0.08996126	          0.09475124	          0.08551846	          0.05000073	          0.22163425	          0.05000167	          0.05863066	          0.05000003	          0.05000005	
          1.74777251	         -2.92801323	          2.85665569	         -6.17143183	          2.19494020	          0.91596946	          0.00167471	         26.32426080	          4.96831767	         -2.79429334	        -16.36625250	         -1.66068489	          7.04590841	        -12.02065974	        -15.39605861	          4.95600884	         -2.72052081	         -7.47933974	          5.09814166	         -2.69384572	         -4.47558229	        -12.30443169	         23.54645401	         -1.59838565	         -1.47576375	          2.38629097	         -7.89429579	        -13.45185238	          4.00308870	          3.05476925	        -13.45771748	         16.94800288	         15.87807675	         41.88536725	         86.51662706	         86.51662706	          0.42836138	          0.40275550	          0.41317858	          0.25559437	          0.19876983	          0.23541623	          0.13059209	          0.09325334	          0.08712294	          0.05109154	          0.05000060	          0.07085622	          0.18984495	          0.17889008	          0.20583801	          0.19316137	          0.05000041	          0.05000537	          0.11926093	          0.25727528	          0.21692789	          0.19544465	          0.05000019	          0.05000018	          0.34066379	          0.14228461	          0.17619146	          0.05000010	          0.12596946	          0.13959008	          0.10646055	          0.05000003	          0.05000006	          0.05000001	          0.05000002	          0.16106047	          0.05000127	          0.67678784	          0.32655995	          0.17403514	          0.63373282	          0.49255178	          0.07323980	          0.09191628	          0.09273490	          0.05253778	          0.33247922	          0.05000012	          0.05000005	          0.28675824	          0.08431247	          0.05000023	          0.05000167	          0.05000018	          0.05000015	          0.05000014	          0.05000308	          0.11893686	          0.19392183	          0.05000104	          0.05000296	          0.11411974	          0.13187796	          0.05951940	          0.05000038	          0.05000145	          0.05000096	          0.05000073	          0.24560108	          0.54241224	          0.05000008	          0.05000035	          0.05000010	          0.17065089	          0.15590142	          0.15180653	          0.14226737	          0.13301103	          0.18159874	          0.16192711	          0.15955382	          0.17142689	          0.21950381	          0.16304582	          0.11634780	          0.07184091	          0.19911410	          0.29884693	          0.05000020	          0.08365197	          0.05000002	          0.05000006	
